<?xml version="1.0" standalone="no"?>
<!DOCTYPE svg PUBLIC "-//W3C//DTD SVG 20010904//EN"
 "http://www.w3.org/TR/2001/REC-SVG-20010904/DTD/svg10.dtd">
<svg version="1.0" xmlns="http://www.w3.org/2000/svg"
 width="500.000000pt" height="500.000000pt" viewBox="0 0 500.000000 500.000000"
 preserveAspectRatio="xMidYMid meet">
<metadata>
Created by potrace 1.11, written by Peter Selinger 2001-2013
</metadata>
<g transform="translate(0.000000,500.000000) scale(0.100000,-0.100000)"
fill="#000000" stroke="none">
<path d="M0 2500 l0 -2500 2500 0 2500 0 0 2500 0 2500 -2500 0 -2500 0 0
-2500z m2635 1810 c56 -122 174 -378 310 -675 46 -99 145 -315 220 -480 75
-165 174 -381 220 -480 114 -248 179 -388 280 -610 48 -104 124 -271 170 -370
45 -99 145 -315 220 -480 75 -165 173 -377 216 -471 43 -94 79 -174 79 -177 0
-4 -69 -7 -154 -7 l-153 0 -31 68 c-17 37 -58 126 -90 197 -99 215 -325 710
-402 880 -40 88 -77 166 -83 173 -8 9 -204 12 -945 10 l-935 -3 -53 -115 c-70
-151 -263 -575 -422 -927 l-127 -282 -157 -1 -157 0 18 43 c11 23 35 76 54
117 65 140 99 215 172 375 40 88 115 250 165 360 121 263 240 523 305 665 29
63 91 198 138 300 226 492 399 870 499 1090 47 102 97 210 111 240 14 30 67
145 117 255 50 110 115 251 143 313 l52 113 83 -3 84 -3 53 -115z"/>
<path d="M2476 3903 c-10 -21 -52 -112 -93 -203 -41 -91 -111 -244 -155 -340
-44 -96 -99 -218 -123 -270 -149 -327 -291 -640 -370 -812 -35 -75 -61 -139
-58 -142 8 -7 1607 -8 1626 0 14 5 13 12 -7 57 -13 29 -85 187 -161 352 -76
165 -159 347 -185 405 -26 58 -87 191 -135 295 -48 105 -131 288 -186 407 -54
120 -106 233 -117 253 l-18 36 -18 -38z"/>
</g>
</svg>
